HIERARCHY
ROOT hip
{
  OFFSET 0 0 0
  CHANNELS 6 Xposition Yposition Zposition Zrotation Yrotation Xrotation
  JOINT abdomen
  {
    OFFSET 0 20.6881 -0.73152
    CHANNELS 3 Zrotation Xrotation Yrotation
    JOINT chest
    {
      OFFSET 0 11.7043 -0.48768
      CHANNELS 3 Zrotation Xrotation Yrotation
      JOINT neck
      {
        OFFSET 0 22.1894 -2.19456
        CHANNELS 3 Zrotation Xrotation Yrotation
        JOINT head
        {
          OFFSET -0.24384 7.07133 1.2192
          CHANNELS 3 Zrotation Xrotation Yrotation
          JOINT leftEye
          {
            OFFSET 4.14528 8.04674 8.04672
            CHANNELS 3 Zrotation Xrotation Yrotation
            End Site
            {
              OFFSET 1 0 0
            }
          }
          JOINT rightEye
          {
            OFFSET -3.6576 8.04674 8.04672
            CHANNELS 3 Zrotation Xrotation Yrotation
            End Site
            {
              OFFSET 1 0 0
            }
          }
        }
      }
      JOINT rCollar
      {
        OFFSET -2.68224 19.2634 -4.8768
        CHANNELS 3 Zrotation Xrotation Yrotation
        JOINT rShldr
        {
          OFFSET -8.77824 -1.95073 1.46304
          CHANNELS 3 Zrotation Xrotation Yrotation
          JOINT rForeArm
          {
            OFFSET -28.1742 -1.7115 0.48768
            CHANNELS 3 Zrotation Xrotation Yrotation
            JOINT rHand
            {
              OFFSET -22.5879 0.773209 7.07136
              CHANNELS 3 Zrotation Xrotation Yrotation
              JOINT rThumb1
              {
                OFFSET -1.2192 -0.487915 3.41376
                CHANNELS 3 Zrotation Xrotation Yrotation
                JOINT rThumb2
                {
                  OFFSET -3.37035 -0.52449 3.41376
                  CHANNELS 3 Zrotation Xrotation Yrotation
                  End Site
                  {
                    OFFSET -1.78271 -1.18214 1.43049
                  }
                }
              }
              JOINT rIndex1
              {
                OFFSET -7.75947 0.938293 5.60832
                CHANNELS 3 Zrotation Xrotation Yrotation
                JOINT rIndex2
                {
                  OFFSET -2.54057 -0.884171 1.56538
                  CHANNELS 3 Zrotation Xrotation Yrotation
                  End Site
                  {
                    OFFSET -1.62519 -0.234802 1.16502
                  }
                }
              }
              JOINT rMid1
              {
                OFFSET -8.24714 1.18213 3.41376
                CHANNELS 3 Zrotation Xrotation Yrotation
                JOINT rMid2
                {
                  OFFSET -3.10165 -0.590103 1.0647
                  CHANNELS 3 Zrotation Xrotation Yrotation
                  End Site
                  {
                    OFFSET -2.48547 -0.328903 0.83742
                  }
                }
              }
              JOINT rRing1
              {
                OFFSET -8.82822 0.546677 1.51678
                CHANNELS 3 Zrotation Xrotation Yrotation
                JOINT rRing2
                {
                  OFFSET -2.60934 -0.819778 -0.0198488
                  CHANNELS 3 Zrotation Xrotation Yrotation
                  End Site
                  {
                    OFFSET -2.33842 -0.294052 0.168128
                  }
                }
              }
              JOINT rPinky1
              {
                OFFSET -8.27202 -0.0477905 -0.4584
                CHANNELS 3 Zrotation Xrotation Yrotation
                JOINT rPinky2
                {
                  OFFSET -1.82734 -0.647385 -0.700984
                  CHANNELS 3 Zrotation Xrotation Yrotation
                  End Site
                  {
                    OFFSET -1.69225 -0.51767 -0.607171
                  }
                }
              }
            }
          }
        }
      }
      JOINT lCollar
      {
        OFFSET 2.68224 19.2634 -4.8768
        CHANNELS 3 Zrotation Xrotation Yrotation
        JOINT lShldr
        {
          OFFSET 8.77824 -1.95073 1.46304
          CHANNELS 3 Zrotation Xrotation Yrotation
          JOINT lForeArm
          {
            OFFSET 28.1742 -1.7115 0.48768
            CHANNELS 3 Zrotation Xrotation Yrotation
            JOINT lHand
            {
              OFFSET 22.5879 0.773209 7.07136
              CHANNELS 3 Zrotation Xrotation Yrotation
              JOINT lThumb1
              {
                OFFSET 1.2192 -0.487915 3.41376
                CHANNELS 3 Zrotation Xrotation Yrotation
                JOINT lThumb2
                {
                  OFFSET 3.37035 -0.52449 3.41376
                  CHANNELS 3 Zrotation Xrotation Yrotation
                  End Site
                  {
                    OFFSET 1.78271 -1.18214 1.43049
                  }
                }
              }
              JOINT lIndex1
              {
                OFFSET 7.75947 0.938293 5.60832
                CHANNELS 3 Zrotation Xrotation Yrotation
                JOINT lIndex2
                {
                  OFFSET 2.54057 -0.884171 1.56538
                  CHANNELS 3 Zrotation Xrotation Yrotation
                  End Site
                  {
                    OFFSET 1.62519 -0.234802 1.16502
                  }
                }
              }
              JOINT lMid1
              {
                OFFSET 8.24714 1.18213 3.41376
                CHANNELS 3 Zrotation Xrotation Yrotation
                JOINT lMid2
                {
                  OFFSET 3.10165 -0.590103 1.0647
                  CHANNELS 3 Zrotation Xrotation Yrotation
                  End Site
                  {
                    OFFSET 2.48547 -0.328903 0.83742
                  }
                }
              }
              JOINT lRing1
              {
                OFFSET 8.82822 0.546677 1.51678
                CHANNELS 3 Zrotation Xrotation Yrotation
                JOINT lRing2
                {
                  OFFSET 2.60934 -0.819778 -0.0198488
                  CHANNELS 3 Zrotation Xrotation Yrotation
                  End Site
                  {
                    OFFSET 2.33842 -0.294052 0.168128
                  }
                }
              }
              JOINT lPinky1
              {
                OFFSET 8.27202 -0.0477905 -0.4584
                CHANNELS 3 Zrotation Xrotation Yrotation
                JOINT lPinky2
                {
                  OFFSET 1.82734 -0.647385 -0.700984
                  CHANNELS 3 Zrotation Xrotation Yrotation
                  End Site
                  {
                    OFFSET 1.69225 -0.51767 -0.607171
                  }
                }
              }
            }
          }
        }
      }
    }
  }
  JOINT rButtock
  {
    OFFSET -8.77824 4.35084 1.2192
    CHANNELS 3 Zrotation Xrotation Yrotation
    JOINT rThigh
    {
      OFFSET 0 -1.70687 -2.19456
      CHANNELS 3 Zrotation Xrotation Yrotation
      JOINT rShin
      {
        OFFSET 0 -36.8199 0.73152
        CHANNELS 3 Zrotation Xrotation Yrotation
        JOINT rFoot
        {
          OFFSET 0.73152 -45.1104 -5.12064
          CHANNELS 3 Zrotation Xrotation Yrotation
          End Site
          {
            OFFSET -1.1221 -3.69964 12.103
          }
        }
      }
    }
  }
  JOINT lButtock
  {
    OFFSET 8.77824 4.35084 1.2192
    CHANNELS 3 Zrotation Xrotation Yrotation
    JOINT lThigh
    {
      OFFSET 0 -1.70687 -2.19456
      CHANNELS 3 Zrotation Xrotation Yrotation
      JOINT lShin
      {
        OFFSET 0 -36.8199 0.73152
        CHANNELS 3 Zrotation Xrotation Yrotation
        JOINT lFoot
        {
          OFFSET -0.73152 -45.1104 -5.12064
          CHANNELS 3 Zrotation Xrotation Yrotation
          End Site
          {
            OFFSET 1.1221 -3.69964 12.103
          }
        }
      }
    }
  }
}
MOTION
Frames:	4
Frame Time:	0.00833333
7.73025 84.8352 -4.19265 183.796 -62.3207 162.038 10.2665 18.6173 2.48606 5.95606 -16.2092 2.06627 5.1712 -1.13405 3.82408 -16.0885 18.5593 6.3214 -0.0 0.0 0.0 -0.0 0.0 0.0 2.44099e-13 -9.23157e-13 -6.5058e-13 110.194 62.7335 -55.9087 -14.7916 -7.61289 27.1573 -0.858298 -25.357 -3.81844 -6.12847e-09 -4.10486e-09 5.1831e-09 -1.06922e-08 -7.096e-09 8.85987e-09 -6.12847e-09 -4.10486e-09 5.18309e-09 7.73091 5.47488 0.417314 -6.12847e-09 -4.10485e-09 5.1831e-09 2.90554 0.965183 0.102902 -6.12847e-09 -4.10485e-09 5.1831e-09 10.2786 0.731801 0.0259123 -6.12848e-09 -4.10485e-09 5.18311e-09 2.22167 -0.733487 -0.20892 2.43971e-13 -9.2313e-13 -6.50726e-13 -83.6284 41.8252 11.6938 21.5585 -15.1121 -42.5969 0.0157525 -3.83081 0.539064 -1.22709e-09 -1.51278e-09 1.45404e-09 -2.13028e-09 -2.60906e-09 2.49743e-09 -1.22709e-09 -1.51277e-09 1.45405e-09 -7.73091 5.47488 -0.417314 -1.22709e-09 -1.51277e-09 1.45404e-09 -2.90554 0.965183 -0.102902 -1.2271e-09 -1.51277e-09 1.45404e-09 -10.2786 0.731801 -0.0259123 -1.22709e-09 -1.51277e-09 1.45404e-09 -2.22167 -0.733487 0.20892 -2.03217e-16 0.0 -3.88251e-19 -3.53871 -24.9836 -27.3772 -1.79881 69.1187 2.5785 3.24573 -15.8192 7.85022 2.03217e-16 0.0 3.88251e-19 3.23979 -33.9498 7.89912 4.93486 81.2583 -6.77888 -1.89981 1.83198 -5.67268
7.89952 84.8574 -4.11351 183.702 -61.9226 161.847 9.68398 18.9417 2.60282 5.79071 -16.0398 2.03966 5.68675 -0.927236 3.97305 -15.9811 18.6291 6.46753 -0.0 0.0 0.0 -0.0 0.0 0.0 1.66217e-13 -6.14537e-13 -5.27503e-13 104.793 64.275 -52.2358 -14.9845 -7.77944 27.5513 -0.795533 -24.4825 -3.66878 -4.70947e-09 -3.70887e-09 4.07013e-09 -8.21795e-09 -6.41243e-09 6.96218e-09 -4.70947e-09 -3.70888e-09 4.07013e-09 7.73091 5.47488 0.417314 -4.70947e-09 -3.70888e-09 4.07013e-09 2.90554 0.965183 0.102902 -4.70947e-09 -3.70888e-09 4.07014e-09 10.2786 0.731801 0.0259123 -4.70948e-09 -3.70887e-09 4.07015e-09 2.22167 -0.733487 -0.20892 1.66084e-13 -6.145e-13 -5.2773e-13 -82.1763 43.3269 10.1719 21.8194 -15.4931 -43.2861 0.00621946 -2.7942 0.392835 -8.08809e-10 -1.60341e-09 1.55013e-09 -1.40517e-09 -2.76758e-09 2.66835e-09 -8.0881e-10 -1.6034e-09 1.55014e-09 -7.73091 5.47488 -0.417314 -8.08809e-10 -1.6034e-09 1.55013e-09 -2.90554 0.965183 -0.102902 -8.08815e-10 -1.6034e-09 1.55013e-09 -10.2786 0.731801 -0.0259123 -8.08807e-10 -1.6034e-09 1.55013e-09 -2.22167 -0.733487 0.20892 -2.03217e-16 0.0 -3.88251e-19 -3.53898 -25.5782 -26.7743 -1.88342 69.7984 2.69159 3.28497 -16.7968 7.53252 2.03217e-16 0.0 3.88251e-19 3.64614 -34.5059 8.60248 4.59468 80.7453 -6.45709 -1.3756 6.31749 -5.31453
8.03225 84.8458 -3.94307 183.199 -61.6697 162.025 9.11678 19.1673 2.72951 5.58441 -15.8933 2.00867 6.20106 -0.688116 4.11943 -15.898 18.6871 6.60255 -0.0 0.0 0.0 -0.0 0.0 0.0 7.70187e-14 -2.75115e-13 -3.8236e-13 98.6619 65.6864 -47.7536 -15.1732 -7.94279 27.9425 -0.728579 -23.4932 -3.50226 -2.99413e-09 -3.08614e-09 2.77787e-09 -5.22803e-09 -5.33732e-09 4.75919e-09 -2.99413e-09 -3.08614e-09 2.77786e-09 7.73091 5.47488 0.417314 -2.99413e-09 -3.08614e-09 2.77787e-09 2.90554 0.965183 0.102902 -2.99413e-09 -3.08614e-09 2.77787e-09 10.2786 0.731801 0.0259123 -2.99413e-09 -3.08614e-09 2.77788e-09 2.22167 -0.733487 -0.20892 7.68777e-14 -2.75071e-13 -3.82665e-13 -80.5312 44.8831 8.63917 22.0967 -15.9054 -44.0432 0.00148573 -1.72875 0.242931 -3.40685e-10 -1.68251e-09 1.6197e-09 -5.93763e-10 -2.90641e-09 2.79411e-09 -3.40687e-10 -1.68251e-09 1.6197e-09 -7.73091 5.47488 -0.417314 -3.40685e-10 -1.68251e-09 1.6197e-09 -2.90554 0.965183 -0.102902 -3.40691e-10 -1.68251e-09 1.6197e-09 -10.2786 0.731801 -0.0259123 -3.40678e-10 -1.68251e-09 1.61969e-09 -2.22167 -0.733487 0.20892 -2.03217e-16 0.0 -3.88251e-19 -3.5282 -26.2114 -26.155 -1.96679 70.4261 2.80457 3.32601 -17.8224 7.2278 2.03217e-16 0.0 3.88251e-19 4.06335 -35.1247 9.43061 4.27566 80.2191 -6.15651 -0.942154 10.6631 -4.79849
8.1459 84.7916 -3.76917 182.701 -61.547 162.169 8.73699 19.3339 2.86805 5.2923 -15.8558 1.98511 6.55159 -0.508335 4.19607 -15.638 18.8842 6.61664 -0.0 0.0 0.0 -0.0 0.0 0.0 1.67742e-14 -5.58814e-14 -2.82871e-13 92.58 66.889 -43.0659 -15.2966 -8.04969 28.2012 -0.66212 -22.47 -3.33235 -1.6422e-09 -2.48868e-09 1.75603e-09 -2.87192e-09 -4.30641e-09 3.01625e-09 -1.64219e-09 -2.48868e-09 1.75603e-09 7.73091 5.47488 0.417314 -1.6422e-09 -2.48868e-09 1.75603e-09 2.90554 0.965183 0.102902 -1.64219e-09 -2.48868e-09 1.75604e-09 10.2786 0.731801 0.0259123 -1.6422e-09 -2.48868e-09 1.75605e-09 2.22167 -0.733487 -0.20892 1.66224e-14 -5.58356e-14 -2.83218e-13 -78.5626 46.5116 6.91322 22.3548 -16.2994 -44.7593 0.000943146 -0.876882 0.123247 -5.36194e-11 -1.75778e-09 1.64324e-09 -9.57804e-11 -3.03799e-09 2.83881e-09 -5.36242e-11 -1.75779e-09 1.64323e-09 -7.73091 5.47488 -0.417314 -5.36205e-11 -1.75779e-09 1.64324e-09 -2.90554 0.965183 -0.102902 -5.36279e-11 -1.75779e-09 1.64324e-09 -10.2786 0.731801 -0.0259123 -5.36098e-11 -1.75779e-09 1.64323e-09 -2.22167 -0.733487 0.20892 -2.03217e-16 0.0 -3.88251e-19 -3.53147 -26.8518 -25.7917 -2.06089 71.0732 2.92233 3.40254 -18.7729 7.08202 2.03217e-16 0.0 3.88251e-19 4.50458 -35.8966 10.2318 4.19101 80.1201 -6.10367 -0.677917 14.2425 -4.30446
